ISO-10303-21;
HEADER;
/* Generated by software containing ST-Developer
 * from STEP Tools, Inc. (www.steptools.com) 
 */

FILE_DESCRIPTION(
/* description */ ('STEP AP242 Edition 2'),
/* implementation_level */ '2;1');

FILE_NAME(
/* name */ 'bottomcase.step',
/* time_stamp */ '2026-09-11T08:06:31+10:00',
/* author */ (''),
/* organization */ (''),
/* preprocessor_version */ 'ST-DEVELOPER v20.2',
/* originating_system */ 'Autodesk Translation Framework v15.15.0.0',
/* authorisation */ '');

FILE_SCHEMA (('AUTOMOTIVE_DESIGN { 1 0 10303 214 3 1 1 }'));
ENDSEC;

DATA;
#10=MECHANICAL_DESIGN_GEOMETRIC_PRESENTATION_REPRESENTATION('',(#23,#24),
#959);
#11=ITEM_DEFINED_TRANSFORMATION($,$,#597,#643);
#12=ITEM_DEFINED_TRANSFORMATION($,$,#616,#644);
#13=(
REPRESENTATION_RELATIONSHIP($,$,#972,#971)
REPRESENTATION_RELATIONSHIP_WITH_TRANSFORMATION(#11)
SHAPE_REPRESENTATION_RELATIONSHIP()
);
#14=(
REPRESENTATION_RELATIONSHIP($,$,#973,#971)
REPRESENTATION_RELATIONSHIP_WITH_TRANSFORMATION(#12)
SHAPE_REPRESENTATION_RELATIONSHIP()
);
#15=CONTEXT_DEPENDENT_SHAPE_REPRESENTATION(#13,#969);
#16=CONTEXT_DEPENDENT_SHAPE_REPRESENTATION(#14,#970);
#17=NEXT_ASSEMBLY_USAGE_OCCURRENCE('Body1:1','Body1:1','Body1:1',#975,#976,
'Body1:1');
#18=NEXT_ASSEMBLY_USAGE_OCCURRENCE('Body2:1','Body2:1','Body2:1',#975,#977,
'Body2:1');
#19=SHAPE_REPRESENTATION_RELATIONSHIP('SRR','None',#972,#21);
#20=SHAPE_REPRESENTATION_RELATIONSHIP('SRR','None',#973,#22);
#21=ADVANCED_BREP_SHAPE_REPRESENTATION('',(#25),#957);
#22=ADVANCED_BREP_SHAPE_REPRESENTATION('',(#26),#958);
#23=STYLED_ITEM('',(#991),#25);
#24=STYLED_ITEM('',(#991),#26);
#25=MANIFOLD_SOLID_BREP('Body1',#571);
#26=MANIFOLD_SOLID_BREP('Body1',#572);
#27=FACE_BOUND('',#104,.T.);
#28=FACE_BOUND('',#105,.T.);
#29=FACE_BOUND('',#106,.T.);
#30=FACE_BOUND('',#107,.T.);
#31=FACE_BOUND('',#109,.T.);
#32=FACE_BOUND('',#110,.T.);
#33=FACE_BOUND('',#111,.T.);
#34=FACE_BOUND('',#112,.T.);
#35=FACE_BOUND('',#118,.T.);
#36=FACE_BOUND('',#119,.T.);
#37=FACE_BOUND('',#120,.T.);
#38=FACE_BOUND('',#121,.T.);
#39=FACE_BOUND('',#122,.T.);
#40=FACE_BOUND('',#129,.T.);
#41=FACE_BOUND('',#135,.T.);
#42=FACE_BOUND('',#138,.T.);
#43=FACE_BOUND('',#139,.T.);
#44=FACE_BOUND('',#140,.T.);
#45=FACE_BOUND('',#141,.T.);
#46=FACE_BOUND('',#142,.T.);
#47=PLANE('',#610);
#48=PLANE('',#611);
#49=PLANE('',#612);
#50=PLANE('',#613);
#51=PLANE('',#614);
#52=PLANE('',#615);
#53=PLANE('',#617);
#54=PLANE('',#618);
#55=PLANE('',#619);
#56=PLANE('',#620);
#57=PLANE('',#621);
#58=PLANE('',#632);
#59=PLANE('',#633);
#60=PLANE('',#634);
#61=PLANE('',#635);
#62=PLANE('',#638);
#63=PLANE('',#639);
#64=PLANE('',#640);
#65=PLANE('',#641);
#66=PLANE('',#642);
#67=FACE_OUTER_BOUND('',#95,.T.);
#68=FACE_OUTER_BOUND('',#96,.T.);
#69=FACE_OUTER_BOUND('',#97,.T.);
#70=FACE_OUTER_BOUND('',#98,.T.);
#71=FACE_OUTER_BOUND('',#99,.T.);
#72=FACE_OUTER_BOUND('',#100,.T.);
#73=FACE_OUTER_BOUND('',#101,.T.);
#74=FACE_OUTER_BOUND('',#102,.T.);
#75=FACE_OUTER_BOUND('',#103,.T.);
#76=FACE_OUTER_BOUND('',#108,.T.);
#77=FACE_OUTER_BOUND('',#113,.T.);
#78=FACE_OUTER_BOUND('',#114,.T.);
#79=FACE_OUTER_BOUND('',#115,.T.);
#80=FACE_OUTER_BOUND('',#116,.T.);
#81=FACE_OUTER_BOUND('',#117,.T.);
#82=FACE_OUTER_BOUND('',#123,.T.);
#83=FACE_OUTER_BOUND('',#124,.T.);
#84=FACE_OUTER_BOUND('',#125,.T.);
#85=FACE_OUTER_BOUND('',#126,.T.);
#86=FACE_OUTER_BOUND('',#127,.T.);
#87=FACE_OUTER_BOUND('',#128,.T.);
#88=FACE_OUTER_BOUND('',#130,.T.);
#89=FACE_OUTER_BOUND('',#131,.T.);
#90=FACE_OUTER_BOUND('',#132,.T.);
#91=FACE_OUTER_BOUND('',#133,.T.);
#92=FACE_OUTER_BOUND('',#134,.T.);
#93=FACE_OUTER_BOUND('',#136,.T.);
#94=FACE_OUTER_BOUND('',#137,.T.);
#95=EDGE_LOOP('',(#391,#392,#393,#394));
#96=EDGE_LOOP('',(#395,#396,#397,#398));
#97=EDGE_LOOP('',(#399,#400,#401,#402));
#98=EDGE_LOOP('',(#403,#404,#405,#406));
#99=EDGE_LOOP('',(#407,#408,#409,#410));
#100=EDGE_LOOP('',(#411,#412,#413,#414));
#101=EDGE_LOOP('',(#415,#416,#417,#418));
#102=EDGE_LOOP('',(#419,#420,#421,#422));
#103=EDGE_LOOP('',(#423,#424,#425,#426));
#104=EDGE_LOOP('',(#427));
#105=EDGE_LOOP('',(#428));
#106=EDGE_LOOP('',(#429));
#107=EDGE_LOOP('',(#430));
#108=EDGE_LOOP('',(#431,#432,#433,#434));
#109=EDGE_LOOP('',(#435));
#110=EDGE_LOOP('',(#436));
#111=EDGE_LOOP('',(#437));
#112=EDGE_LOOP('',(#438));
#113=EDGE_LOOP('',(#439,#440,#441,#442));
#114=EDGE_LOOP('',(#443,#444,#445,#446));
#115=EDGE_LOOP('',(#447,#448,#449,#450));
#116=EDGE_LOOP('',(#451,#452,#453,#454));
#117=EDGE_LOOP('',(#455,#456,#457,#458));
#118=EDGE_LOOP('',(#459));
#119=EDGE_LOOP('',(#460,#461,#462,#463));
#120=EDGE_LOOP('',(#464));
#121=EDGE_LOOP('',(#465));
#122=EDGE_LOOP('',(#466));
#123=EDGE_LOOP('',(#467,#468,#469,#470));
#124=EDGE_LOOP('',(#471,#472,#473,#474));
#125=EDGE_LOOP('',(#475,#476,#477,#478));
#126=EDGE_LOOP('',(#479,#480,#481,#482));
#127=EDGE_LOOP('',(#483,#484,#485,#486));
#128=EDGE_LOOP('',(#487,#488,#489,#490));
#129=EDGE_LOOP('',(#491,#492,#493,#494));
#130=EDGE_LOOP('',(#495,#496,#497,#498));
#131=EDGE_LOOP('',(#499,#500,#501,#502));
#132=EDGE_LOOP('',(#503,#504,#505,#506));
#133=EDGE_LOOP('',(#507,#508,#509,#510));
#134=EDGE_LOOP('',(#511,#512,#513,#514));
#135=EDGE_LOOP('',(#515,#516,#517,#518));
#136=EDGE_LOOP('',(#519,#520,#521,#522));
#137=EDGE_LOOP('',(#523,#524,#525,#526));
#138=EDGE_LOOP('',(#527));
#139=EDGE_LOOP('',(#528,#529,#530,#531));
#140=EDGE_LOOP('',(#532));
#141=EDGE_LOOP('',(#533));
#142=EDGE_LOOP('',(#534));
#143=LINE('',#805,#199);
#144=LINE('',#811,#200);
#145=LINE('',#817,#201);
#146=LINE('',#823,#202);
#147=LINE('',#828,#203);
#148=LINE('',#830,#204);
#149=LINE('',#832,#205);
#150=LINE('',#833,#206);
#151=LINE('',#836,#207);
#152=LINE('',#838,#208);
#153=LINE('',#839,#209);
#154=LINE('',#842,#210);
#155=LINE('',#844,#211);
#156=LINE('',#845,#212);
#157=LINE('',#847,#213);
#158=LINE('',#848,#214);
#159=LINE('',#855,#215);
#160=LINE('',#857,#216);
#161=LINE('',#859,#217);
#162=LINE('',#860,#218);
#163=LINE('',#863,#219);
#164=LINE('',#865,#220);
#165=LINE('',#866,#221);
#166=LINE('',#869,#222);
#167=LINE('',#871,#223);
#168=LINE('',#872,#224);
#169=LINE('',#874,#225);
#170=LINE('',#875,#226);
#171=LINE('',#879,#227);
#172=LINE('',#881,#228);
#173=LINE('',#883,#229);
#174=LINE('',#884,#230);
#175=LINE('',#889,#231);
#176=LINE('',#891,#232);
#177=LINE('',#893,#233);
#178=LINE('',#894,#234);
#179=LINE('',#904,#235);
#180=LINE('',#908,#236);
#181=LINE('',#912,#237);
#182=LINE('',#916,#238);
#183=LINE('',#917,#239);
#184=LINE('',#918,#240);
#185=LINE('',#921,#241);
#186=LINE('',#922,#242);
#187=LINE('',#925,#243);
#188=LINE('',#926,#244);
#189=LINE('',#928,#245);
#190=LINE('',#932,#246);
#191=LINE('',#936,#247);
#192=LINE('',#937,#248);
#193=LINE('',#938,#249);
#194=LINE('',#941,#250);
#195=LINE('',#942,#251);
#196=LINE('',#945,#252);
#197=LINE('',#946,#253);
#198=LINE('',#948,#254);
#199=VECTOR('',#653,0.00145);
#200=VECTOR('',#660,0.00145);
#201=VECTOR('',#667,0.00145);
#202=VECTOR('',#674,0.00145);
#203=VECTOR('',#679,1.);
#204=VECTOR('',#680,1.);
#205=VECTOR('',#681,1.);
#206=VECTOR('',#682,1.);
#207=VECTOR('',#685,1.);
#208=VECTOR('',#686,1.);
#209=VECTOR('',#687,1.);
#210=VECTOR('',#690,1.);
#211=VECTOR('',#691,1.);
#212=VECTOR('',#692,1.);
#213=VECTOR('',#695,1.);
#214=VECTOR('',#696,1.);
#215=VECTOR('',#705,0.01);
#216=VECTOR('',#706,0.01);
#217=VECTOR('',#707,0.01);
#218=VECTOR('',#708,0.01);
#219=VECTOR('',#711,0.01);
#220=VECTOR('',#712,0.01);
#221=VECTOR('',#713,0.01);
#222=VECTOR('',#716,0.01);
#223=VECTOR('',#717,0.01);
#224=VECTOR('',#718,0.01);
#225=VECTOR('',#721,0.01);
#226=VECTOR('',#722,0.01);
#227=VECTOR('',#725,1.);
#228=VECTOR('',#726,1.);
#229=VECTOR('',#727,1.);
#230=VECTOR('',#728,1.);
#231=VECTOR('',#731,1.);
#232=VECTOR('',#732,1.);
#233=VECTOR('',#733,1.);
#234=VECTOR('',#734,1.);
#235=VECTOR('',#745,0.00145);
#236=VECTOR('',#750,0.00145);
#237=VECTOR('',#755,0.00145);
#238=VECTOR('',#758,1.);
#239=VECTOR('',#759,1.);
#240=VECTOR('',#760,1.);
#241=VECTOR('',#763,1.);
#242=VECTOR('',#764,1.);
#243=VECTOR('',#767,1.);
#244=VECTOR('',#768,1.);
#245=VECTOR('',#771,1.);
#246=VECTOR('',#776,0.00145);
#247=VECTOR('',#779,1.);
#248=VECTOR('',#780,1.);
#249=VECTOR('',#781,1.);
#250=VECTOR('',#784,1.);
#251=VECTOR('',#785,1.);
#252=VECTOR('',#788,1.);
#253=VECTOR('',#789,1.);
#254=VECTOR('',#792,1.);
#255=CIRCLE('',#599,0.00145);
#256=CIRCLE('',#600,0.00145);
#257=CIRCLE('',#602,0.00145);
#258=CIRCLE('',#603,0.00145);
#259=CIRCLE('',#605,0.00145);
#260=CIRCLE('',#606,0.00145);
#261=CIRCLE('',#608,0.00145);
#262=CIRCLE('',#609,0.00145);
#263=CIRCLE('',#622,0.00145);
#264=CIRCLE('',#623,0.00145);
#265=CIRCLE('',#624,0.00145);
#266=CIRCLE('',#625,0.00145);
#267=CIRCLE('',#627,0.00145);
#268=CIRCLE('',#629,0.00145);
#269=CIRCLE('',#631,0.00145);
#270=CIRCLE('',#637,0.00145);
#271=VERTEX_POINT('',#802);
#272=VERTEX_POINT('',#804);
#273=VERTEX_POINT('',#808);
#274=VERTEX_POINT('',#810);
#275=VERTEX_POINT('',#814);
#276=VERTEX_POINT('',#816);
#277=VERTEX_POINT('',#820);
#278=VERTEX_POINT('',#822);
#279=VERTEX_POINT('',#826);
#280=VERTEX_POINT('',#827);
#281=VERTEX_POINT('',#829);
#282=VERTEX_POINT('',#831);
#283=VERTEX_POINT('',#835);
#284=VERTEX_POINT('',#837);
#285=VERTEX_POINT('',#841);
#286=VERTEX_POINT('',#843);
#287=VERTEX_POINT('',#853);
#288=VERTEX_POINT('',#854);
#289=VERTEX_POINT('',#856);
#290=VERTEX_POINT('',#858);
#291=VERTEX_POINT('',#862);
#292=VERTEX_POINT('',#864);
#293=VERTEX_POINT('',#868);
#294=VERTEX_POINT('',#870);
#295=VERTEX_POINT('',#877);
#296=VERTEX_POINT('',#878);
#297=VERTEX_POINT('',#880);
#298=VERTEX_POINT('',#882);
#299=VERTEX_POINT('',#885);
#300=VERTEX_POINT('',#887);
#301=VERTEX_POINT('',#888);
#302=VERTEX_POINT('',#890);
#303=VERTEX_POINT('',#892);
#304=VERTEX_POINT('',#895);
#305=VERTEX_POINT('',#897);
#306=VERTEX_POINT('',#899);
#307=VERTEX_POINT('',#902);
#308=VERTEX_POINT('',#906);
#309=VERTEX_POINT('',#910);
#310=VERTEX_POINT('',#914);
#311=VERTEX_POINT('',#915);
#312=VERTEX_POINT('',#920);
#313=VERTEX_POINT('',#924);
#314=VERTEX_POINT('',#930);
#315=VERTEX_POINT('',#934);
#316=VERTEX_POINT('',#935);
#317=VERTEX_POINT('',#940);
#318=VERTEX_POINT('',#944);
#319=EDGE_CURVE('',#271,#271,#255,.F.);
#320=EDGE_CURVE('',#271,#272,#143,.T.);
#321=EDGE_CURVE('',#272,#272,#256,.F.);
#322=EDGE_CURVE('',#273,#273,#257,.F.);
#323=EDGE_CURVE('',#273,#274,#144,.T.);
#324=EDGE_CURVE('',#274,#274,#258,.F.);
#325=EDGE_CURVE('',#275,#275,#259,.F.);
#326=EDGE_CURVE('',#275,#276,#145,.T.);
#327=EDGE_CURVE('',#276,#276,#260,.F.);
#328=EDGE_CURVE('',#277,#277,#261,.F.);
#329=EDGE_CURVE('',#277,#278,#146,.T.);
#330=EDGE_CURVE('',#278,#278,#262,.F.);
#331=EDGE_CURVE('',#279,#280,#147,.T.);
#332=EDGE_CURVE('',#280,#281,#148,.T.);
#333=EDGE_CURVE('',#282,#281,#149,.T.);
#334=EDGE_CURVE('',#279,#282,#150,.T.);
#335=EDGE_CURVE('',#283,#279,#151,.T.);
#336=EDGE_CURVE('',#284,#282,#152,.F.);
#337=EDGE_CURVE('',#283,#284,#153,.T.);
#338=EDGE_CURVE('',#285,#283,#154,.T.);
#339=EDGE_CURVE('',#286,#284,#155,.F.);
#340=EDGE_CURVE('',#285,#286,#156,.T.);
#341=EDGE_CURVE('',#280,#285,#157,.T.);
#342=EDGE_CURVE('',#281,#286,#158,.T.);
#343=EDGE_CURVE('',#287,#288,#159,.T.);
#344=EDGE_CURVE('',#287,#289,#160,.T.);
#345=EDGE_CURVE('',#290,#289,#161,.T.);
#346=EDGE_CURVE('',#288,#290,#162,.T.);
#347=EDGE_CURVE('',#291,#287,#163,.T.);
#348=EDGE_CURVE('',#291,#292,#164,.T.);
#349=EDGE_CURVE('',#289,#292,#165,.T.);
#350=EDGE_CURVE('',#293,#291,#166,.T.);
#351=EDGE_CURVE('',#293,#294,#167,.T.);
#352=EDGE_CURVE('',#292,#294,#168,.T.);
#353=EDGE_CURVE('',#288,#293,#169,.T.);
#354=EDGE_CURVE('',#294,#290,#170,.T.);
#355=EDGE_CURVE('',#295,#296,#171,.T.);
#356=EDGE_CURVE('',#296,#297,#172,.T.);
#357=EDGE_CURVE('',#297,#298,#173,.T.);
#358=EDGE_CURVE('',#298,#295,#174,.T.);
#359=EDGE_CURVE('',#299,#299,#263,.T.);
#360=EDGE_CURVE('',#300,#301,#175,.T.);
#361=EDGE_CURVE('',#301,#302,#176,.T.);
#362=EDGE_CURVE('',#302,#303,#177,.T.);
#363=EDGE_CURVE('',#303,#300,#178,.T.);
#364=EDGE_CURVE('',#304,#304,#264,.T.);
#365=EDGE_CURVE('',#305,#305,#265,.T.);
#366=EDGE_CURVE('',#306,#306,#266,.T.);
#367=EDGE_CURVE('',#307,#307,#267,.F.);
#368=EDGE_CURVE('',#307,#306,#179,.T.);
#369=EDGE_CURVE('',#308,#308,#268,.F.);
#370=EDGE_CURVE('',#308,#305,#180,.T.);
#371=EDGE_CURVE('',#309,#309,#269,.F.);
#372=EDGE_CURVE('',#309,#304,#181,.T.);
#373=EDGE_CURVE('',#310,#311,#182,.T.);
#374=EDGE_CURVE('',#311,#300,#183,.T.);
#375=EDGE_CURVE('',#310,#303,#184,.T.);
#376=EDGE_CURVE('',#312,#310,#185,.T.);
#377=EDGE_CURVE('',#312,#302,#186,.T.);
#378=EDGE_CURVE('',#313,#312,#187,.T.);
#379=EDGE_CURVE('',#313,#301,#188,.T.);
#380=EDGE_CURVE('',#311,#313,#189,.T.);
#381=EDGE_CURVE('',#314,#314,#270,.F.);
#382=EDGE_CURVE('',#314,#299,#190,.T.);
#383=EDGE_CURVE('',#315,#316,#191,.T.);
#384=EDGE_CURVE('',#316,#295,#192,.T.);
#385=EDGE_CURVE('',#315,#298,#193,.T.);
#386=EDGE_CURVE('',#317,#315,#194,.T.);
#387=EDGE_CURVE('',#317,#297,#195,.T.);
#388=EDGE_CURVE('',#318,#317,#196,.T.);
#389=EDGE_CURVE('',#318,#296,#197,.T.);
#390=EDGE_CURVE('',#316,#318,#198,.T.);
#391=ORIENTED_EDGE('',*,*,#319,.T.);
#392=ORIENTED_EDGE('',*,*,#320,.T.);
#393=ORIENTED_EDGE('',*,*,#321,.F.);
#394=ORIENTED_EDGE('',*,*,#320,.F.);
#395=ORIENTED_EDGE('',*,*,#322,.T.);
#396=ORIENTED_EDGE('',*,*,#323,.T.);
#397=ORIENTED_EDGE('',*,*,#324,.F.);
#398=ORIENTED_EDGE('',*,*,#323,.F.);
#399=ORIENTED_EDGE('',*,*,#325,.T.);
#400=ORIENTED_EDGE('',*,*,#326,.T.);
#401=ORIENTED_EDGE('',*,*,#327,.F.);
#402=ORIENTED_EDGE('',*,*,#326,.F.);
#403=ORIENTED_EDGE('',*,*,#328,.T.);
#404=ORIENTED_EDGE('',*,*,#329,.T.);
#405=ORIENTED_EDGE('',*,*,#330,.F.);
#406=ORIENTED_EDGE('',*,*,#329,.F.);
#407=ORIENTED_EDGE('',*,*,#331,.T.);
#408=ORIENTED_EDGE('',*,*,#332,.T.);
#409=ORIENTED_EDGE('',*,*,#333,.F.);
#410=ORIENTED_EDGE('',*,*,#334,.F.);
#411=ORIENTED_EDGE('',*,*,#335,.T.);
#412=ORIENTED_EDGE('',*,*,#334,.T.);
#413=ORIENTED_EDGE('',*,*,#336,.F.);
#414=ORIENTED_EDGE('',*,*,#337,.F.);
#415=ORIENTED_EDGE('',*,*,#338,.T.);
#416=ORIENTED_EDGE('',*,*,#337,.T.);
#417=ORIENTED_EDGE('',*,*,#339,.F.);
#418=ORIENTED_EDGE('',*,*,#340,.F.);
#419=ORIENTED_EDGE('',*,*,#341,.T.);
#420=ORIENTED_EDGE('',*,*,#340,.T.);
#421=ORIENTED_EDGE('',*,*,#342,.F.);
#422=ORIENTED_EDGE('',*,*,#332,.F.);
#423=ORIENTED_EDGE('',*,*,#342,.T.);
#424=ORIENTED_EDGE('',*,*,#339,.T.);
#425=ORIENTED_EDGE('',*,*,#336,.T.);
#426=ORIENTED_EDGE('',*,*,#333,.T.);
#427=ORIENTED_EDGE('',*,*,#330,.T.);
#428=ORIENTED_EDGE('',*,*,#327,.T.);
#429=ORIENTED_EDGE('',*,*,#324,.T.);
#430=ORIENTED_EDGE('',*,*,#321,.T.);
#431=ORIENTED_EDGE('',*,*,#341,.F.);
#432=ORIENTED_EDGE('',*,*,#331,.F.);
#433=ORIENTED_EDGE('',*,*,#335,.F.);
#434=ORIENTED_EDGE('',*,*,#338,.F.);
#435=ORIENTED_EDGE('',*,*,#328,.F.);
#436=ORIENTED_EDGE('',*,*,#325,.F.);
#437=ORIENTED_EDGE('',*,*,#322,.F.);
#438=ORIENTED_EDGE('',*,*,#319,.F.);
#439=ORIENTED_EDGE('',*,*,#343,.F.);
#440=ORIENTED_EDGE('',*,*,#344,.T.);
#441=ORIENTED_EDGE('',*,*,#345,.F.);
#442=ORIENTED_EDGE('',*,*,#346,.F.);
#443=ORIENTED_EDGE('',*,*,#347,.F.);
#444=ORIENTED_EDGE('',*,*,#348,.T.);
#445=ORIENTED_EDGE('',*,*,#349,.F.);
#446=ORIENTED_EDGE('',*,*,#344,.F.);
#447=ORIENTED_EDGE('',*,*,#350,.F.);
#448=ORIENTED_EDGE('',*,*,#351,.T.);
#449=ORIENTED_EDGE('',*,*,#352,.F.);
#450=ORIENTED_EDGE('',*,*,#348,.F.);
#451=ORIENTED_EDGE('',*,*,#353,.F.);
#452=ORIENTED_EDGE('',*,*,#346,.T.);
#453=ORIENTED_EDGE('',*,*,#354,.F.);
#454=ORIENTED_EDGE('',*,*,#351,.F.);
#455=ORIENTED_EDGE('',*,*,#355,.T.);
#456=ORIENTED_EDGE('',*,*,#356,.T.);
#457=ORIENTED_EDGE('',*,*,#357,.T.);
#458=ORIENTED_EDGE('',*,*,#358,.T.);
#459=ORIENTED_EDGE('',*,*,#359,.T.);
#460=ORIENTED_EDGE('',*,*,#360,.T.);
#461=ORIENTED_EDGE('',*,*,#361,.T.);
#462=ORIENTED_EDGE('',*,*,#362,.T.);
#463=ORIENTED_EDGE('',*,*,#363,.T.);
#464=ORIENTED_EDGE('',*,*,#364,.T.);
#465=ORIENTED_EDGE('',*,*,#365,.T.);
#466=ORIENTED_EDGE('',*,*,#366,.T.);
#467=ORIENTED_EDGE('',*,*,#367,.T.);
#468=ORIENTED_EDGE('',*,*,#368,.T.);
#469=ORIENTED_EDGE('',*,*,#366,.F.);
#470=ORIENTED_EDGE('',*,*,#368,.F.);
#471=ORIENTED_EDGE('',*,*,#369,.T.);
#472=ORIENTED_EDGE('',*,*,#370,.T.);
#473=ORIENTED_EDGE('',*,*,#365,.F.);
#474=ORIENTED_EDGE('',*,*,#370,.F.);
#475=ORIENTED_EDGE('',*,*,#371,.T.);
#476=ORIENTED_EDGE('',*,*,#372,.T.);
#477=ORIENTED_EDGE('',*,*,#364,.F.);
#478=ORIENTED_EDGE('',*,*,#372,.F.);
#479=ORIENTED_EDGE('',*,*,#373,.T.);
#480=ORIENTED_EDGE('',*,*,#374,.T.);
#481=ORIENTED_EDGE('',*,*,#363,.F.);
#482=ORIENTED_EDGE('',*,*,#375,.F.);
#483=ORIENTED_EDGE('',*,*,#376,.T.);
#484=ORIENTED_EDGE('',*,*,#375,.T.);
#485=ORIENTED_EDGE('',*,*,#362,.F.);
#486=ORIENTED_EDGE('',*,*,#377,.F.);
#487=ORIENTED_EDGE('',*,*,#378,.T.);
#488=ORIENTED_EDGE('',*,*,#377,.T.);
#489=ORIENTED_EDGE('',*,*,#361,.F.);
#490=ORIENTED_EDGE('',*,*,#379,.F.);
#491=ORIENTED_EDGE('',*,*,#345,.T.);
#492=ORIENTED_EDGE('',*,*,#349,.T.);
#493=ORIENTED_EDGE('',*,*,#352,.T.);
#494=ORIENTED_EDGE('',*,*,#354,.T.);
#495=ORIENTED_EDGE('',*,*,#380,.T.);
#496=ORIENTED_EDGE('',*,*,#379,.T.);
#497=ORIENTED_EDGE('',*,*,#360,.F.);
#498=ORIENTED_EDGE('',*,*,#374,.F.);
#499=ORIENTED_EDGE('',*,*,#381,.T.);
#500=ORIENTED_EDGE('',*,*,#382,.T.);
#501=ORIENTED_EDGE('',*,*,#359,.F.);
#502=ORIENTED_EDGE('',*,*,#382,.F.);
#503=ORIENTED_EDGE('',*,*,#383,.T.);
#504=ORIENTED_EDGE('',*,*,#384,.T.);
#505=ORIENTED_EDGE('',*,*,#358,.F.);
#506=ORIENTED_EDGE('',*,*,#385,.F.);
#507=ORIENTED_EDGE('',*,*,#386,.T.);
#508=ORIENTED_EDGE('',*,*,#385,.T.);
#509=ORIENTED_EDGE('',*,*,#357,.F.);
#510=ORIENTED_EDGE('',*,*,#387,.F.);
#511=ORIENTED_EDGE('',*,*,#388,.T.);
#512=ORIENTED_EDGE('',*,*,#387,.T.);
#513=ORIENTED_EDGE('',*,*,#356,.F.);
#514=ORIENTED_EDGE('',*,*,#389,.F.);
#515=ORIENTED_EDGE('',*,*,#343,.T.);
#516=ORIENTED_EDGE('',*,*,#353,.T.);
#517=ORIENTED_EDGE('',*,*,#350,.T.);
#518=ORIENTED_EDGE('',*,*,#347,.T.);
#519=ORIENTED_EDGE('',*,*,#390,.T.);
#520=ORIENTED_EDGE('',*,*,#389,.T.);
#521=ORIENTED_EDGE('',*,*,#355,.F.);
#522=ORIENTED_EDGE('',*,*,#384,.F.);
#523=ORIENTED_EDGE('',*,*,#390,.F.);
#524=ORIENTED_EDGE('',*,*,#383,.F.);
#525=ORIENTED_EDGE('',*,*,#386,.F.);
#526=ORIENTED_EDGE('',*,*,#388,.F.);
#527=ORIENTED_EDGE('',*,*,#381,.F.);
#528=ORIENTED_EDGE('',*,*,#380,.F.);
#529=ORIENTED_EDGE('',*,*,#373,.F.);
#530=ORIENTED_EDGE('',*,*,#376,.F.);
#531=ORIENTED_EDGE('',*,*,#378,.F.);
#532=ORIENTED_EDGE('',*,*,#371,.F.);
#533=ORIENTED_EDGE('',*,*,#369,.F.);
#534=ORIENTED_EDGE('',*,*,#367,.F.);
#535=CYLINDRICAL_SURFACE('',#598,0.00145);
#536=CYLINDRICAL_SURFACE('',#601,0.00145);
#537=CYLINDRICAL_SURFACE('',#604,0.00145);
#538=CYLINDRICAL_SURFACE('',#607,0.00145);
#539=CYLINDRICAL_SURFACE('',#626,0.00145);
#540=CYLINDRICAL_SURFACE('',#628,0.00145);
#541=CYLINDRICAL_SURFACE('',#630,0.00145);
#542=CYLINDRICAL_SURFACE('',#636,0.00145);
#543=ADVANCED_FACE('',(#67),#535,.F.);
#544=ADVANCED_FACE('',(#68),#536,.F.);
#545=ADVANCED_FACE('',(#69),#537,.F.);
#546=ADVANCED_FACE('',(#70),#538,.F.);
#547=ADVANCED_FACE('',(#71),#47,.T.);
#548=ADVANCED_FACE('',(#72),#48,.T.);
#549=ADVANCED_FACE('',(#73),#49,.T.);
#550=ADVANCED_FACE('',(#74),#50,.T.);
#551=ADVANCED_FACE('',(#75,#27,#28,#29,#30),#51,.T.);
#552=ADVANCED_FACE('',(#76,#31,#32,#33,#34),#52,.F.);
#553=ADVANCED_FACE('',(#77),#53,.F.);
#554=ADVANCED_FACE('',(#78),#54,.F.);
#555=ADVANCED_FACE('',(#79),#55,.F.);
#556=ADVANCED_FACE('',(#80),#56,.F.);
#557=ADVANCED_FACE('',(#81,#35,#36,#37,#38,#39),#57,.T.);
#558=ADVANCED_FACE('',(#82),#539,.F.);
#559=ADVANCED_FACE('',(#83),#540,.F.);
#560=ADVANCED_FACE('',(#84),#541,.F.);
#561=ADVANCED_FACE('',(#85),#58,.T.);
#562=ADVANCED_FACE('',(#86),#59,.T.);
#563=ADVANCED_FACE('',(#87,#40),#60,.T.);
#564=ADVANCED_FACE('',(#88),#61,.T.);
#565=ADVANCED_FACE('',(#89),#542,.F.);
#566=ADVANCED_FACE('',(#90),#62,.T.);
#567=ADVANCED_FACE('',(#91),#63,.T.);
#568=ADVANCED_FACE('',(#92,#41),#64,.T.);
#569=ADVANCED_FACE('',(#93),#65,.T.);
#570=ADVANCED_FACE('',(#94,#42,#43,#44,#45,#46),#66,.F.);
#571=CLOSED_SHELL('',(#543,#544,#545,#546,#547,#548,#549,#550,#551,#552));
#572=CLOSED_SHELL('',(#553,#554,#555,#556,#557,#558,#559,#560,#561,#562,
#563,#564,#565,#566,#567,#568,#569,#570));
#573=DERIVED_UNIT_ELEMENT(#577,1.);
#574=DERIVED_UNIT_ELEMENT(#960,-3.);
#575=DERIVED_UNIT_ELEMENT(#577,1.);
#576=DERIVED_UNIT_ELEMENT(#960,-3.);
#577=(
MASS_UNIT()
NAMED_UNIT(*)
SI_UNIT(.KILO.,.GRAM.)
);
#578=DERIVED_UNIT((#573,#574));
#579=DERIVED_UNIT((#575,#576));
#580=MEASURE_REPRESENTATION_ITEM('density measure',
POSITIVE_RATIO_MEASURE(7850.),#578);
#581=MEASURE_REPRESENTATION_ITEM('density measure',
POSITIVE_RATIO_MEASURE(7850.),#579);
#582=PROPERTY_DEFINITION_REPRESENTATION(#592,#586);
#583=PROPERTY_DEFINITION_REPRESENTATION(#593,#587);
#584=PROPERTY_DEFINITION_REPRESENTATION(#594,#588);
#585=PROPERTY_DEFINITION_REPRESENTATION(#595,#589);
#586=REPRESENTATION('material name',(#590),#957);
#587=REPRESENTATION('density',(#580),#957);
#588=REPRESENTATION('material name',(#591),#958);
#589=REPRESENTATION('density',(#581),#958);
#590=DESCRIPTIVE_REPRESENTATION_ITEM('Steel','Steel');
#591=DESCRIPTIVE_REPRESENTATION_ITEM('Steel','Steel');
#592=PROPERTY_DEFINITION('material property','material name',#976);
#593=PROPERTY_DEFINITION('material property','density of part',#976);
#594=PROPERTY_DEFINITION('material property','material name',#977);
#595=PROPERTY_DEFINITION('material property','density of part',#977);
#596=AXIS2_PLACEMENT_3D('',#799,#645,#646);
#597=AXIS2_PLACEMENT_3D('',#800,#647,#648);
#598=AXIS2_PLACEMENT_3D('',#801,#649,#650);
#599=AXIS2_PLACEMENT_3D('',#803,#651,#652);
#600=AXIS2_PLACEMENT_3D('',#806,#654,#655);
#601=AXIS2_PLACEMENT_3D('',#807,#656,#657);
#602=AXIS2_PLACEMENT_3D('',#809,#658,#659);
#603=AXIS2_PLACEMENT_3D('',#812,#661,#662);
#604=AXIS2_PLACEMENT_3D('',#813,#663,#664);
#605=AXIS2_PLACEMENT_3D('',#815,#665,#666);
#606=AXIS2_PLACEMENT_3D('',#818,#668,#669);
#607=AXIS2_PLACEMENT_3D('',#819,#670,#671);
#608=AXIS2_PLACEMENT_3D('',#821,#672,#673);
#609=AXIS2_PLACEMENT_3D('',#824,#675,#676);
#610=AXIS2_PLACEMENT_3D('',#825,#677,#678);
#611=AXIS2_PLACEMENT_3D('',#834,#683,#684);
#612=AXIS2_PLACEMENT_3D('',#840,#688,#689);
#613=AXIS2_PLACEMENT_3D('',#846,#693,#694);
#614=AXIS2_PLACEMENT_3D('',#849,#697,#698);
#615=AXIS2_PLACEMENT_3D('',#850,#699,#700);
#616=AXIS2_PLACEMENT_3D('',#851,#701,#702);
#617=AXIS2_PLACEMENT_3D('',#852,#703,#704);
#618=AXIS2_PLACEMENT_3D('',#861,#709,#710);
#619=AXIS2_PLACEMENT_3D('',#867,#714,#715);
#620=AXIS2_PLACEMENT_3D('',#873,#719,#720);
#621=AXIS2_PLACEMENT_3D('',#876,#723,#724);
#622=AXIS2_PLACEMENT_3D('',#886,#729,#730);
#623=AXIS2_PLACEMENT_3D('',#896,#735,#736);
#624=AXIS2_PLACEMENT_3D('',#898,#737,#738);
#625=AXIS2_PLACEMENT_3D('',#900,#739,#740);
#626=AXIS2_PLACEMENT_3D('',#901,#741,#742);
#627=AXIS2_PLACEMENT_3D('',#903,#743,#744);
#628=AXIS2_PLACEMENT_3D('',#905,#746,#747);
#629=AXIS2_PLACEMENT_3D('',#907,#748,#749);
#630=AXIS2_PLACEMENT_3D('',#909,#751,#752);
#631=AXIS2_PLACEMENT_3D('',#911,#753,#754);
#632=AXIS2_PLACEMENT_3D('',#913,#756,#757);
#633=AXIS2_PLACEMENT_3D('',#919,#761,#762);
#634=AXIS2_PLACEMENT_3D('',#923,#765,#766);
#635=AXIS2_PLACEMENT_3D('',#927,#769,#770);
#636=AXIS2_PLACEMENT_3D('',#929,#772,#773);
#637=AXIS2_PLACEMENT_3D('',#931,#774,#775);
#638=AXIS2_PLACEMENT_3D('',#933,#777,#778);
#639=AXIS2_PLACEMENT_3D('',#939,#782,#783);
#640=AXIS2_PLACEMENT_3D('',#943,#786,#787);
#641=AXIS2_PLACEMENT_3D('',#947,#790,#791);
#642=AXIS2_PLACEMENT_3D('',#949,#793,#794);
#643=AXIS2_PLACEMENT_3D('',#950,#795,#796);
#644=AXIS2_PLACEMENT_3D('',#951,#797,#798);
#645=DIRECTION('axis',(0.,0.,1.));
#646=DIRECTION('refdir',(1.,0.,0.));
#647=DIRECTION('axis',(0.,0.,1.));
#648=DIRECTION('refdir',(1.,0.,0.));
#649=DIRECTION('center_axis',(0.,0.,1.));
#650=DIRECTION('ref_axis',(1.,0.,0.));
#651=DIRECTION('center_axis',(0.,0.,1.));
#652=DIRECTION('ref_axis',(1.,0.,0.));
#653=DIRECTION('',(0.,0.,1.));
#654=DIRECTION('center_axis',(0.,0.,1.));
#655=DIRECTION('ref_axis',(1.,0.,0.));
#656=DIRECTION('center_axis',(0.,0.,1.));
#657=DIRECTION('ref_axis',(1.,0.,0.));
#658=DIRECTION('center_axis',(0.,0.,1.));
#659=DIRECTION('ref_axis',(1.,0.,0.));
#660=DIRECTION('',(0.,0.,1.));
#661=DIRECTION('center_axis',(0.,0.,1.));
#662=DIRECTION('ref_axis',(1.,0.,0.));
#663=DIRECTION('center_axis',(0.,0.,1.));
#664=DIRECTION('ref_axis',(1.,0.,0.));
#665=DIRECTION('center_axis',(0.,0.,1.));
#666=DIRECTION('ref_axis',(1.,0.,0.));
#667=DIRECTION('',(0.,0.,1.));
#668=DIRECTION('center_axis',(0.,0.,1.));
#669=DIRECTION('ref_axis',(1.,0.,0.));
#670=DIRECTION('center_axis',(0.,0.,1.));
#671=DIRECTION('ref_axis',(1.,0.,0.));
#672=DIRECTION('center_axis',(0.,0.,1.));
#673=DIRECTION('ref_axis',(1.,0.,0.));
#674=DIRECTION('',(0.,0.,1.));
#675=DIRECTION('center_axis',(0.,0.,1.));
#676=DIRECTION('ref_axis',(1.,0.,0.));
#677=DIRECTION('center_axis',(0.,-1.,0.));
#678=DIRECTION('ref_axis',(1.,0.,0.));
#679=DIRECTION('',(1.,0.,0.));
#680=DIRECTION('',(0.,0.,1.));
#681=DIRECTION('',(1.,0.,0.));
#682=DIRECTION('',(0.,0.,1.));
#683=DIRECTION('center_axis',(-1.,0.,0.));
#684=DIRECTION('ref_axis',(0.,-1.,0.));
#685=DIRECTION('',(0.,-1.,0.));
#686=DIRECTION('',(0.,1.,0.));
#687=DIRECTION('',(0.,0.,1.));
#688=DIRECTION('center_axis',(0.,1.,0.));
#689=DIRECTION('ref_axis',(-1.,0.,0.));
#690=DIRECTION('',(-1.,0.,0.));
#691=DIRECTION('',(1.,0.,0.));
#692=DIRECTION('',(0.,0.,1.));
#693=DIRECTION('center_axis',(1.,0.,0.));
#694=DIRECTION('ref_axis',(0.,1.,0.));
#695=DIRECTION('',(0.,1.,0.));
#696=DIRECTION('',(0.,1.,0.));
#697=DIRECTION('center_axis',(0.,0.,1.));
#698=DIRECTION('ref_axis',(1.,0.,0.));
#699=DIRECTION('center_axis',(0.,0.,1.));
#700=DIRECTION('ref_axis',(1.,0.,0.));
#701=DIRECTION('axis',(0.,0.,1.));
#702=DIRECTION('refdir',(1.,0.,0.));
#703=DIRECTION('center_axis',(-1.,0.,0.));
#704=DIRECTION('ref_axis',(0.,0.,-1.));
#705=DIRECTION('',(0.,0.,-1.));
#706=DIRECTION('',(0.,-1.,0.));
#707=DIRECTION('',(0.,0.,1.));
#708=DIRECTION('',(0.,-1.,0.));
#709=DIRECTION('center_axis',(0.,0.,1.));
#710=DIRECTION('ref_axis',(-1.,0.,0.));
#711=DIRECTION('',(-1.,0.,0.));
#712=DIRECTION('',(0.,-1.,0.));
#713=DIRECTION('',(1.,0.,0.));
#714=DIRECTION('center_axis',(1.,0.,0.));
#715=DIRECTION('ref_axis',(0.,0.,1.));
#716=DIRECTION('',(0.,0.,1.));
#717=DIRECTION('',(0.,-1.,0.));
#718=DIRECTION('',(0.,0.,-1.));
#719=DIRECTION('center_axis',(0.,0.,-1.));
#720=DIRECTION('ref_axis',(1.,0.,0.));
#721=DIRECTION('',(1.,0.,0.));
#722=DIRECTION('',(-1.,0.,0.));
#723=DIRECTION('center_axis',(0.,0.,1.));
#724=DIRECTION('ref_axis',(1.,0.,0.));
#725=DIRECTION('',(0.,1.,0.));
#726=DIRECTION('',(-1.,0.,0.));
#727=DIRECTION('',(0.,-1.,0.));
#728=DIRECTION('',(1.,0.,0.));
#729=DIRECTION('center_axis',(0.,0.,-1.));
#730=DIRECTION('ref_axis',(1.,0.,0.));
#731=DIRECTION('',(0.,1.,0.));
#732=DIRECTION('',(1.,0.,0.));
#733=DIRECTION('',(0.,-1.,0.));
#734=DIRECTION('',(-1.,0.,0.));
#735=DIRECTION('center_axis',(0.,0.,-1.));
#736=DIRECTION('ref_axis',(1.,0.,0.));
#737=DIRECTION('center_axis',(0.,0.,-1.));
#738=DIRECTION('ref_axis',(1.,0.,0.));
#739=DIRECTION('center_axis',(0.,0.,-1.));
#740=DIRECTION('ref_axis',(1.,0.,0.));
#741=DIRECTION('center_axis',(0.,0.,1.));
#742=DIRECTION('ref_axis',(1.,0.,0.));
#743=DIRECTION('center_axis',(0.,0.,1.));
#744=DIRECTION('ref_axis',(1.,0.,0.));
#745=DIRECTION('',(0.,0.,1.));
#746=DIRECTION('center_axis',(0.,0.,1.));
#747=DIRECTION('ref_axis',(1.,0.,0.));
#748=DIRECTION('center_axis',(0.,0.,1.));
#749=DIRECTION('ref_axis',(1.,0.,0.));
#750=DIRECTION('',(0.,0.,1.));
#751=DIRECTION('center_axis',(0.,0.,1.));
#752=DIRECTION('ref_axis',(1.,0.,0.));
#753=DIRECTION('center_axis',(0.,0.,1.));
#754=DIRECTION('ref_axis',(1.,0.,0.));
#755=DIRECTION('',(0.,0.,1.));
#756=DIRECTION('center_axis',(0.,1.,0.));
#757=DIRECTION('ref_axis',(-1.,0.,0.));
#758=DIRECTION('',(-1.,0.,0.));
#759=DIRECTION('',(0.,0.,1.));
#760=DIRECTION('',(0.,0.,1.));
#761=DIRECTION('center_axis',(-1.,0.,0.));
#762=DIRECTION('ref_axis',(0.,-1.,0.));
#763=DIRECTION('',(0.,-1.,0.));
#764=DIRECTION('',(0.,0.,1.));
#765=DIRECTION('center_axis',(0.,-1.,0.));
#766=DIRECTION('ref_axis',(1.,0.,0.));
#767=DIRECTION('',(1.,0.,0.));
#768=DIRECTION('',(0.,0.,1.));
#769=DIRECTION('center_axis',(1.,0.,0.));
#770=DIRECTION('ref_axis',(0.,1.,0.));
#771=DIRECTION('',(0.,1.,0.));
#772=DIRECTION('center_axis',(0.,0.,1.));
#773=DIRECTION('ref_axis',(1.,0.,0.));
#774=DIRECTION('center_axis',(0.,0.,1.));
#775=DIRECTION('ref_axis',(1.,0.,0.));
#776=DIRECTION('',(0.,0.,1.));
#777=DIRECTION('center_axis',(0.,-1.,0.));
#778=DIRECTION('ref_axis',(1.,0.,0.));
#779=DIRECTION('',(1.,0.,0.));
#780=DIRECTION('',(0.,0.,1.));
#781=DIRECTION('',(0.,0.,1.));
#782=DIRECTION('center_axis',(-1.,0.,0.));
#783=DIRECTION('ref_axis',(0.,-1.,0.));
#784=DIRECTION('',(0.,-1.,0.));
#785=DIRECTION('',(0.,0.,1.));
#786=DIRECTION('center_axis',(0.,1.,0.));
#787=DIRECTION('ref_axis',(-1.,0.,0.));
#788=DIRECTION('',(-1.,0.,0.));
#789=DIRECTION('',(0.,0.,1.));
#790=DIRECTION('center_axis',(1.,0.,0.));
#791=DIRECTION('ref_axis',(0.,1.,0.));
#792=DIRECTION('',(0.,1.,0.));
#793=DIRECTION('center_axis',(0.,0.,1.));
#794=DIRECTION('ref_axis',(1.,0.,0.));
#795=DIRECTION('',(0.,0.,1.));
#796=DIRECTION('',(1.,0.,0.));
#797=DIRECTION('',(0.,0.,1.));
#798=DIRECTION('',(1.,0.,0.));
#799=CARTESIAN_POINT('',(0.,0.,0.));
#800=CARTESIAN_POINT('',(0.,0.,0.));
#801=CARTESIAN_POINT('Origin',(0.085,0.085,0.));
#802=CARTESIAN_POINT('',(0.08355,0.085,0.));
#803=CARTESIAN_POINT('Origin',(0.085,0.085,0.));
#804=CARTESIAN_POINT('',(0.08355,0.085,0.003));
#805=CARTESIAN_POINT('',(0.08355,0.085,0.));
#806=CARTESIAN_POINT('Origin',(0.085,0.085,0.003));
#807=CARTESIAN_POINT('Origin',(0.0850000012665988,-0.00500000007450581,
0.));
#808=CARTESIAN_POINT('',(0.0835500012665988,-0.00500000007450581,0.));
#809=CARTESIAN_POINT('Origin',(0.0850000012665988,-0.00500000007450581,
0.));
#810=CARTESIAN_POINT('',(0.0835500012665988,-0.00500000007450581,0.003));
#811=CARTESIAN_POINT('',(0.0835500012665988,-0.00500000007450581,0.));
#812=CARTESIAN_POINT('Origin',(0.0850000012665988,-0.00500000007450581,
0.003));
#813=CARTESIAN_POINT('Origin',(-0.005,-0.005,0.));
#814=CARTESIAN_POINT('',(-0.00645,-0.005,0.));
#815=CARTESIAN_POINT('Origin',(-0.005,-0.005,0.));
#816=CARTESIAN_POINT('',(-0.00645,-0.005,0.003));
#817=CARTESIAN_POINT('',(-0.00645,-0.005,0.));
#818=CARTESIAN_POINT('Origin',(-0.005,-0.005,0.003));
#819=CARTESIAN_POINT('Origin',(-0.005,0.085,0.));
#820=CARTESIAN_POINT('',(-0.00645,0.085,0.));
#821=CARTESIAN_POINT('Origin',(-0.005,0.085,0.));
#822=CARTESIAN_POINT('',(-0.00645,0.085,0.003));
#823=CARTESIAN_POINT('',(-0.00645,0.085,0.));
#824=CARTESIAN_POINT('Origin',(-0.005,0.085,0.003));
#825=CARTESIAN_POINT('Origin',(-0.01,-0.01,0.));
#826=CARTESIAN_POINT('',(-0.01,-0.01,0.));
#827=CARTESIAN_POINT('',(0.0904,-0.01,0.));
#828=CARTESIAN_POINT('',(-0.01,-0.01,0.));
#829=CARTESIAN_POINT('',(0.0904,-0.01,0.003));
#830=CARTESIAN_POINT('',(0.0904,-0.01,0.));
#831=CARTESIAN_POINT('',(-0.01,-0.01,0.003));
#832=CARTESIAN_POINT('',(0.0402,-0.01,0.003));
#833=CARTESIAN_POINT('',(-0.01,-0.01,0.));
#834=CARTESIAN_POINT('Origin',(-0.01,0.0919,0.));
#835=CARTESIAN_POINT('',(-0.01,0.0919,0.));
#836=CARTESIAN_POINT('',(-0.01,0.0919,0.));
#837=CARTESIAN_POINT('',(-0.01,0.0919,0.003));
#838=CARTESIAN_POINT('',(-0.01,0.04095,0.003));
#839=CARTESIAN_POINT('',(-0.01,0.0919,0.));
#840=CARTESIAN_POINT('Origin',(0.0904,0.0919,0.));
#841=CARTESIAN_POINT('',(0.0904,0.0919,0.));
#842=CARTESIAN_POINT('',(0.0904,0.0919,0.));
#843=CARTESIAN_POINT('',(0.0904,0.0919,0.003));
#844=CARTESIAN_POINT('',(0.0402,0.0919,0.003));
#845=CARTESIAN_POINT('',(0.0904,0.0919,0.));
#846=CARTESIAN_POINT('Origin',(0.0904,-0.01,0.));
#847=CARTESIAN_POINT('',(0.0904,-0.01,0.));
#848=CARTESIAN_POINT('',(0.0904,0.04095,0.003));
#849=CARTESIAN_POINT('Origin',(0.0402,0.04095,0.003));
#850=CARTESIAN_POINT('Origin',(0.0402,0.04095,0.));
#851=CARTESIAN_POINT('',(0.,0.,0.));
#852=CARTESIAN_POINT('Origin',(0.0614623189571145,0.0919,0.00800000011920929));
#853=CARTESIAN_POINT('',(0.0614623189571145,0.0919,0.00800000011920929));
#854=CARTESIAN_POINT('',(0.0614623189571145,0.0919,0.00335869845192101));
#855=CARTESIAN_POINT('',(0.0614623189571145,0.0919,0.00400000005960465));
#856=CARTESIAN_POINT('',(0.0614623189571145,0.0819,0.00800000011920929));
#857=CARTESIAN_POINT('',(0.0614623189571145,0.0919,0.00800000011920929));
#858=CARTESIAN_POINT('',(0.0614623189571145,0.0819,0.00335869845192101));
#859=CARTESIAN_POINT('',(0.0614623189571145,0.0819,0.00400000005960465));
#860=CARTESIAN_POINT('',(0.0614623189571145,0.0919,0.00335869845192101));
#861=CARTESIAN_POINT('Origin',(0.071500001065433,0.0919,0.00800000011920929));
#862=CARTESIAN_POINT('',(0.071500001065433,0.0919,0.00800000011920929));
#863=CARTESIAN_POINT('',(0.0809500005327165,0.0919,0.00800000011920929));
#864=CARTESIAN_POINT('',(0.071500001065433,0.0819,0.00800000011920929));
#865=CARTESIAN_POINT('',(0.071500001065433,0.0919,0.00800000011920929));
#866=CARTESIAN_POINT('',(0.0357500005327165,0.0819,0.00800000011920929));
#867=CARTESIAN_POINT('Origin',(0.071500001065433,0.0919,0.00335869845192101));
#868=CARTESIAN_POINT('',(0.071500001065433,0.0919,0.00335869845192101));
#869=CARTESIAN_POINT('',(0.071500001065433,0.0919,0.00167934922596051));
#870=CARTESIAN_POINT('',(0.071500001065433,0.0819,0.00335869845192101));
#871=CARTESIAN_POINT('',(0.071500001065433,0.0919,0.00335869845192101));
#872=CARTESIAN_POINT('',(0.071500001065433,0.0819,0.00167934922596051));
#873=CARTESIAN_POINT('Origin',(0.0614623189571145,0.0919,0.00335869845192101));
#874=CARTESIAN_POINT('',(0.0759311594785573,0.0919,0.00335869845192101));
#875=CARTESIAN_POINT('',(0.0307311594785573,0.0819,0.00335869845192101));
#876=CARTESIAN_POINT('Origin',(0.0402,0.04095,0.0122));
#877=CARTESIAN_POINT('',(0.0904,-0.01,0.0122));
#878=CARTESIAN_POINT('',(0.0904,0.0919,0.0122));
#879=CARTESIAN_POINT('',(0.0904,0.04095,0.0122));
#880=CARTESIAN_POINT('',(-0.01,0.0919,0.0122));
#881=CARTESIAN_POINT('',(0.0402,0.0919,0.0122));
#882=CARTESIAN_POINT('',(-0.01,-0.01,0.0122));
#883=CARTESIAN_POINT('',(-0.01,0.04095,0.0122));
#884=CARTESIAN_POINT('',(0.0402,-0.01,0.0122));
#885=CARTESIAN_POINT('',(0.0835500012665988,-0.00500000007450581,0.0122));
#886=CARTESIAN_POINT('Origin',(0.0850000012665988,-0.00500000007450581,
0.0122));
#887=CARTESIAN_POINT('',(0.,0.,0.0122));
#888=CARTESIAN_POINT('',(0.,0.0819,0.0122));
#889=CARTESIAN_POINT('',(0.,0.04095,0.0122));
#890=CARTESIAN_POINT('',(0.0804,0.0819,0.0122));
#891=CARTESIAN_POINT('',(0.0402,0.0819,0.0122));
#892=CARTESIAN_POINT('',(0.0804,0.,0.0122));
#893=CARTESIAN_POINT('',(0.0804,0.04095,0.0122));
#894=CARTESIAN_POINT('',(0.0402,0.,0.0122));
#895=CARTESIAN_POINT('',(-0.00645,-0.005,0.0122));
#896=CARTESIAN_POINT('Origin',(-0.005,-0.005,0.0122));
#897=CARTESIAN_POINT('',(0.08355,0.085,0.0122));
#898=CARTESIAN_POINT('Origin',(0.085,0.085,0.0122));
#899=CARTESIAN_POINT('',(-0.00645,0.085,0.0122));
#900=CARTESIAN_POINT('Origin',(-0.005,0.085,0.0122));
#901=CARTESIAN_POINT('Origin',(-0.005,0.085,0.));
#902=CARTESIAN_POINT('',(-0.00645,0.085,0.));
#903=CARTESIAN_POINT('Origin',(-0.005,0.085,0.));
#904=CARTESIAN_POINT('',(-0.00645,0.085,0.));
#905=CARTESIAN_POINT('Origin',(0.085,0.085,0.));
#906=CARTESIAN_POINT('',(0.08355,0.085,0.));
#907=CARTESIAN_POINT('Origin',(0.085,0.085,0.));
#908=CARTESIAN_POINT('',(0.08355,0.085,0.));
#909=CARTESIAN_POINT('Origin',(-0.005,-0.005,0.));
#910=CARTESIAN_POINT('',(-0.00645,-0.005,0.));
#911=CARTESIAN_POINT('Origin',(-0.005,-0.005,0.));
#912=CARTESIAN_POINT('',(-0.00645,-0.005,0.));
#913=CARTESIAN_POINT('Origin',(0.0804,0.,0.));
#914=CARTESIAN_POINT('',(0.0804,0.,0.));
#915=CARTESIAN_POINT('',(0.,0.,0.));
#916=CARTESIAN_POINT('',(0.0804,0.,0.));
#917=CARTESIAN_POINT('',(0.,0.,0.));
#918=CARTESIAN_POINT('',(0.0804,0.,0.));
#919=CARTESIAN_POINT('Origin',(0.0804,0.0819,0.));
#920=CARTESIAN_POINT('',(0.0804,0.0819,0.));
#921=CARTESIAN_POINT('',(0.0804,0.0819,0.));
#922=CARTESIAN_POINT('',(0.0804,0.0819,0.));
#923=CARTESIAN_POINT('Origin',(0.,0.0819,0.));
#924=CARTESIAN_POINT('',(0.,0.0819,0.));
#925=CARTESIAN_POINT('',(0.,0.0819,0.));
#926=CARTESIAN_POINT('',(0.,0.0819,0.));
#927=CARTESIAN_POINT('Origin',(0.,0.,0.));
#928=CARTESIAN_POINT('',(0.,0.,0.));
#929=CARTESIAN_POINT('Origin',(0.0850000012665988,-0.00500000007450581,
0.));
#930=CARTESIAN_POINT('',(0.0835500012665988,-0.00500000007450581,0.));
#931=CARTESIAN_POINT('Origin',(0.0850000012665988,-0.00500000007450581,
0.));
#932=CARTESIAN_POINT('',(0.0835500012665988,-0.00500000007450581,0.));
#933=CARTESIAN_POINT('Origin',(-0.01,-0.01,0.));
#934=CARTESIAN_POINT('',(-0.01,-0.01,0.));
#935=CARTESIAN_POINT('',(0.0904,-0.01,0.));
#936=CARTESIAN_POINT('',(-0.01,-0.01,0.));
#937=CARTESIAN_POINT('',(0.0904,-0.01,0.));
#938=CARTESIAN_POINT('',(-0.01,-0.01,0.));
#939=CARTESIAN_POINT('Origin',(-0.01,0.0919,0.));
#940=CARTESIAN_POINT('',(-0.01,0.0919,0.));
#941=CARTESIAN_POINT('',(-0.01,0.0919,0.));
#942=CARTESIAN_POINT('',(-0.01,0.0919,0.));
#943=CARTESIAN_POINT('Origin',(0.0904,0.0919,0.));
#944=CARTESIAN_POINT('',(0.0904,0.0919,0.));
#945=CARTESIAN_POINT('',(0.0904,0.0919,0.));
#946=CARTESIAN_POINT('',(0.0904,0.0919,0.));
#947=CARTESIAN_POINT('Origin',(0.0904,-0.01,0.));
#948=CARTESIAN_POINT('',(0.0904,-0.01,0.));
#949=CARTESIAN_POINT('Origin',(0.0402,0.04095,0.));
#950=CARTESIAN_POINT('',(0.,0.,0.));
#951=CARTESIAN_POINT('',(0.,0.,0.));
#952=UNCERTAINTY_MEASURE_WITH_UNIT(LENGTH_MEASURE(1.E-5),#960,
'DISTANCE_ACCURACY_VALUE',
'Maximum model space distance between geometric entities at asserted c
onnectivities');
#953=UNCERTAINTY_MEASURE_WITH_UNIT(LENGTH_MEASURE(1.E-5),#960,
'DISTANCE_ACCURACY_VALUE',
'Maximum model space distance between geometric entities at asserted c
onnectivities');
#954=UNCERTAINTY_MEASURE_WITH_UNIT(LENGTH_MEASURE(1.E-5),#960,
'DISTANCE_ACCURACY_VALUE',
'Maximum model space distance between geometric entities at asserted c
onnectivities');
#955=UNCERTAINTY_MEASURE_WITH_UNIT(LENGTH_MEASURE(1.E-5),#960,
'DISTANCE_ACCURACY_VALUE',
'Maximum model space distance between geometric entities at asserted c
onnectivities');
#956=(
GEOMETRIC_REPRESENTATION_CONTEXT(3)
GLOBAL_UNCERTAINTY_ASSIGNED_CONTEXT((#952))
GLOBAL_UNIT_ASSIGNED_CONTEXT((#960,#961,#962))
REPRESENTATION_CONTEXT('','3D')
);
#957=(
GEOMETRIC_REPRESENTATION_CONTEXT(3)
GLOBAL_UNCERTAINTY_ASSIGNED_CONTEXT((#953))
GLOBAL_UNIT_ASSIGNED_CONTEXT((#960,#961,#962))
REPRESENTATION_CONTEXT('','3D')
);
#958=(
GEOMETRIC_REPRESENTATION_CONTEXT(3)
GLOBAL_UNCERTAINTY_ASSIGNED_CONTEXT((#954))
GLOBAL_UNIT_ASSIGNED_CONTEXT((#960,#961,#962))
REPRESENTATION_CONTEXT('','3D')
);
#959=(
GEOMETRIC_REPRESENTATION_CONTEXT(3)
GLOBAL_UNCERTAINTY_ASSIGNED_CONTEXT((#955))
GLOBAL_UNIT_ASSIGNED_CONTEXT((#960,#961,#962))
REPRESENTATION_CONTEXT('','3D')
);
#960=(
LENGTH_UNIT()
NAMED_UNIT(*)
SI_UNIT($,.METRE.)
);
#961=(
NAMED_UNIT(*)
PLANE_ANGLE_UNIT()
SI_UNIT($,.RADIAN.)
);
#962=(
NAMED_UNIT(*)
SI_UNIT($,.STERADIAN.)
SOLID_ANGLE_UNIT()
);
#963=SHAPE_DEFINITION_REPRESENTATION(#966,#971);
#964=SHAPE_DEFINITION_REPRESENTATION(#967,#972);
#965=SHAPE_DEFINITION_REPRESENTATION(#968,#973);
#966=PRODUCT_DEFINITION_SHAPE('',$,#975);
#967=PRODUCT_DEFINITION_SHAPE('',$,#976);
#968=PRODUCT_DEFINITION_SHAPE('',$,#977);
#969=PRODUCT_DEFINITION_SHAPE($,$,#17);
#970=PRODUCT_DEFINITION_SHAPE($,$,#18);
#971=SHAPE_REPRESENTATION('',(#596,#643,#644),#956);
#972=SHAPE_REPRESENTATION('',(#597),#957);
#973=SHAPE_REPRESENTATION('',(#616),#958);
#974=PRODUCT_DEFINITION_CONTEXT('part definition',#985,'design');
#975=PRODUCT_DEFINITION('2026-09-08-21-13-04-699','hackpadonshape',#978,
#974);
#976=PRODUCT_DEFINITION('2026-09-08-21-13-04-702','Body1',#979,#974);
#977=PRODUCT_DEFINITION('2026-09-08-21-13-04-704','Body2',#980,#974);
#978=PRODUCT_DEFINITION_FORMATION('',$,#987);
#979=PRODUCT_DEFINITION_FORMATION('',$,#988);
#980=PRODUCT_DEFINITION_FORMATION('',$,#989);
#981=PRODUCT_RELATED_PRODUCT_CATEGORY('hackpadonshape','hackpadonshape',
(#987));
#982=PRODUCT_RELATED_PRODUCT_CATEGORY('Body1','Body1',(#988));
#983=PRODUCT_RELATED_PRODUCT_CATEGORY('Body2','Body2',(#989));
#984=APPLICATION_PROTOCOL_DEFINITION('international standard',
'automotive_design',2009,#985);
#985=APPLICATION_CONTEXT(
'Core Data for Automotive Mechanical Design Process');
#986=PRODUCT_CONTEXT('part definition',#985,'mechanical');
#987=PRODUCT('2026-09-08-21-13-04-699','hackpadonshape',
'STEP AP242 Edition 2',(#986));
#988=PRODUCT('2026-09-08-21-13-04-702','Body1','Body1',(#986));
#989=PRODUCT('2026-09-08-21-13-04-704','Body2','Body2',(#986));
#990=PRESENTATION_STYLE_ASSIGNMENT((#992));
#991=PRESENTATION_STYLE_ASSIGNMENT((#993));
#992=SURFACE_STYLE_USAGE(.BOTH.,#994);
#993=SURFACE_STYLE_USAGE(.BOTH.,#995);
#994=SURFACE_SIDE_STYLE('',(#996));
#995=SURFACE_SIDE_STYLE('',(#997));
#996=SURFACE_STYLE_FILL_AREA(#998);
#997=SURFACE_STYLE_FILL_AREA(#999);
#998=FILL_AREA_STYLE('Steel - Satin',(#1000));
#999=FILL_AREA_STYLE('Opaque(160,160,160)',(#1001));
#1000=FILL_AREA_STYLE_COLOUR('Steel - Satin',#1002);
#1001=FILL_AREA_STYLE_COLOUR('Opaque(160,160,160)',#1003);
#1002=COLOUR_RGB('Steel - Satin',0.627450980392157,0.627450980392157,0.627450980392157);
#1003=COLOUR_RGB('Opaque(160,160,160)',0.627450980392157,0.627450980392157,
0.627450980392157);
ENDSEC;
END-ISO-10303-21;
